<svg id="Ebene_1" data-name="Ebene 1" xmlns="http://www.w3.org/2000/svg" viewBox="0 0 113.39 113.39"><defs><style>.cls-1{fill:#fff;}</style></defs><path class="cls-1" d="M10.42,21.6l3.25,12.16,4-12.16h3.9l4,12.16L28.8,21.6h5.11L28.3,40.43h-5L19.61,29.52l-3.7,10.91h-5L5.3,21.6Z"/><path class="cls-1" d="M40.78,28.87h7.07V21.6h4.89V40.43H47.85V32.66H40.78v7.77H35.89V21.6h4.89Z"/><path class="cls-1" d="M68.22,37.16h-7l-1.12,3.27H54.89L62.05,21.6H67.4l7.16,18.83H69.34Zm-1.3-3.72-2.19-6.27-2.2,6.27Z"/><path class="cls-1" d="M82.67,25.75V40.43h-4.9V25.75h-4V21.6H86.69v4.15Z"/><path class="cls-1" d="M93,29.89H89.21V21.6H93Z"/><path class="cls-1" d="M105.36,26.42a6.13,6.13,0,0,0-1.59-1,4.24,4.24,0,0,0-1.55-.31,2.5,2.5,0,0,0-1.55.45,1.4,1.4,0,0,0-.6,1.17,1.19,1.19,0,0,0,.3.83,2.71,2.71,0,0,0,.79.56,6.89,6.89,0,0,0,1.09.41c.41.12.82.24,1.21.37A7.61,7.61,0,0,1,107,31.08a5.26,5.26,0,0,1,1.11,3.48,6.83,6.83,0,0,1-.48,2.62,5.36,5.36,0,0,1-1.43,2,6.56,6.56,0,0,1-2.29,1.3,9.56,9.56,0,0,1-3.09.46,11.28,11.28,0,0,1-6.61-2.12l2.09-3.94a8.37,8.37,0,0,0,2.18,1.44,5.14,5.14,0,0,0,2.12.48,2.5,2.5,0,0,0,1.78-.55,1.68,1.68,0,0,0,.59-1.25,1.72,1.72,0,0,0-.15-.74,1.55,1.55,0,0,0-.5-.57,4.23,4.23,0,0,0-.91-.49c-.37-.15-.83-.31-1.36-.5s-1.25-.42-1.86-.66a5.69,5.69,0,0,1-1.62-1,4.36,4.36,0,0,1-1.15-1.51A5.38,5.38,0,0,1,95,27.27a6.59,6.59,0,0,1,.46-2.53,5.61,5.61,0,0,1,1.3-1.95,5.81,5.81,0,0,1,2.05-1.26,7.74,7.74,0,0,1,2.71-.45,11.8,11.8,0,0,1,2.92.39,12.52,12.52,0,0,1,2.92,1.13Z"/><path class="cls-1" d="M58.71,66.11,61.9,47.28h4.85l3.77,10,3.74-10h4.85L82.3,66.11H77.43L75.81,55.27,71.37,66.11h-2L65.2,55.27,63.58,66.11Z"/><path class="cls-1" d="M87.67,57.07l-6.86-9.79h5.84l3.49,5.14,3.47-5.14h5.85l-6.89,9.79v9h-4.9Z"/><path class="cls-1" d="M28.13,73h7.29a5.59,5.59,0,0,1,3.94,1.24,4.68,4.68,0,0,1,1.35,3.6,4.88,4.88,0,0,1-.51,2.36,4.38,4.38,0,0,1-1.56,1.59,5.79,5.79,0,0,1,1.79.61,3.7,3.7,0,0,1,1.19,1,3.89,3.89,0,0,1,.67,1.35,6.3,6.3,0,0,1,.19,1.59A5.6,5.6,0,0,1,42,88.66a4.73,4.73,0,0,1-1.3,1.72,5.36,5.36,0,0,1-2,1.05,9.4,9.4,0,0,1-2.7.35H28.13ZM33,80.35h.9c1.53,0,2.3-.61,2.3-1.82s-.77-1.83-2.3-1.83H33ZM33,88H34.1a5.37,5.37,0,0,0,2.64-.48,1.84,1.84,0,0,0,0-3A5.37,5.37,0,0,0,34.1,84H33Z"/><path class="cls-1" d="M43.56,91.78,46.76,73H51.6l3.77,10,3.75-10H64l3.2,18.82H62.29L60.66,81,56.22,91.78H54.27L50.05,81,48.43,91.78Z"/><path class="cls-1" d="M74.56,73V91.78H69.67V73Z"/><path class="cls-1" d="M83.65,85.47V80.6l.55.08a2.74,2.74,0,0,0,.48,0A4.07,4.07,0,0,0,86,80.53,3.26,3.26,0,0,0,87,80a2.3,2.3,0,0,0,.68-.78,2.08,2.08,0,0,0,.25-1,1.82,1.82,0,0,0-.5-1.29,1.71,1.71,0,0,0-1.34-.55,1.57,1.57,0,0,0-1.24.52,2,2,0,0,0-.46,1.37h-5a5.33,5.33,0,0,1,.51-2.33,5.8,5.8,0,0,1,1.42-1.85,6.76,6.76,0,0,1,2.15-1.22,8.07,8.07,0,0,1,2.69-.44,7,7,0,0,1,2.68.49,6.41,6.41,0,0,1,2.08,1.31,5.6,5.6,0,0,1,1.35,1.9,5.34,5.34,0,0,1,.48,2.22q0,3.75-4.52,5.32v1.8Zm-.5,3.92a2.94,2.94,0,0,1,.23-1.14,2.8,2.8,0,0,1,1.56-1.56,2.92,2.92,0,0,1,2.27,0,2.8,2.8,0,0,1,1.56,1.56A2.94,2.94,0,0,1,89,89.39a2.89,2.89,0,0,1-.23,1.13,3,3,0,0,1-.62.94,2.85,2.85,0,0,1-.94.62,2.92,2.92,0,0,1-2.27,0,2.85,2.85,0,0,1-.94-.62,3,3,0,0,1-.62-.94A2.89,2.89,0,0,1,83.15,89.39Z"/></svg>